<svg id="svg" version="1.1" xmlns="http://www.w3.org/2000/svg" width="400" height="400" viewBox="0, 0, 400,400"><g id="svgg"><path id="path0" d="M136.000 200.406 L 136.000 305.211 148.500 305.106 L 161.000 305.000 160.981 257.600 C 160.968 225.965,160.802 207.473,160.484 202.000 C 159.578 186.441,157.599 156.187,157.186 151.600 C 156.959 149.070,156.598 144.840,156.384 142.200 C 156.170 139.560,155.825 135.780,155.618 133.800 C 155.410 131.820,155.041 128.310,154.797 126.000 C 154.554 123.690,154.186 120.180,153.981 118.200 C 153.776 116.220,153.494 113.700,153.355 112.600 C 153.198 111.357,153.244 110.751,153.475 111.000 C 153.868 111.422,154.250 112.558,159.804 129.800 C 161.717 135.740,164.504 144.290,165.998 148.800 C 167.493 153.310,170.642 162.940,172.997 170.200 C 175.352 177.460,178.135 186.010,179.180 189.200 C 180.226 192.390,182.413 199.092,184.040 204.093 L 187.000 213.186 200.656 213.193 L 214.312 213.200 216.207 207.300 C 217.249 204.055,218.958 198.790,220.004 195.600 C 221.051 192.410,222.479 188.000,223.178 185.800 C 225.007 180.042,230.969 161.590,233.194 154.800 C 234.239 151.610,236.544 144.500,238.316 139.000 C 246.244 114.393,247.315 111.224,247.634 111.421 C 247.821 111.537,247.898 112.119,247.805 112.716 C 247.712 113.312,247.442 115.870,247.205 118.400 C 246.967 120.930,246.606 124.620,246.403 126.600 C 246.199 128.580,245.838 132.180,245.601 134.600 C 245.364 137.020,245.006 140.530,244.807 142.400 C 243.739 152.408,242.307 169.165,241.406 182.200 C 241.071 187.040,240.616 193.520,240.394 196.600 C 239.522 208.708,239.203 227.053,239.202 265.300 L 239.200 305.200 251.757 305.200 C 262.839 305.200,264.343 305.126,264.557 304.567 C 264.875 303.740,264.875 97.060,264.557 96.233 C 264.341 95.670,262.460 95.600,247.455 95.600 L 230.595 95.600 230.078 97.300 C 229.794 98.235,229.017 100.800,228.352 103.000 C 227.687 105.200,226.718 108.350,226.200 110.000 C 225.682 111.650,224.693 114.890,224.003 117.200 C 223.313 119.510,222.592 121.850,222.401 122.400 C 222.211 122.950,221.660 124.750,221.178 126.400 C 220.697 128.050,219.989 130.390,219.607 131.600 C 219.224 132.810,218.501 135.150,218.000 136.800 C 217.499 138.450,216.776 140.790,216.393 142.000 C 216.011 143.210,215.300 145.550,214.814 147.200 C 214.328 148.850,213.609 151.190,213.216 152.400 C 211.548 157.532,207.241 172.204,206.447 175.454 C 206.240 176.304,205.772 178.080,205.409 179.400 C 204.391 183.094,201.921 192.492,201.702 193.500 C 201.306 195.325,200.809 194.413,199.575 189.600 C 198.016 183.515,196.868 179.638,193.654 169.600 C 188.867 154.649,185.854 145.289,184.386 140.800 C 183.061 136.751,181.628 132.287,175.719 113.800 C 174.946 111.380,173.540 107.060,172.595 104.200 C 171.650 101.340,170.673 98.235,170.423 97.300 L 169.969 95.600 152.985 95.600 L 136.000 95.600 136.000 200.406 " stroke="none" fill="#f7f7f7" fill-rule="evenodd"></path><path id="path1" d="M30.400 0.291 C 29.630 0.382,28.829 0.624,28.620 0.829 C 28.411 1.033,27.837 1.200,27.344 1.200 C 26.851 1.200,26.336 1.380,26.200 1.600 C 26.064 1.820,25.513 2.000,24.976 2.000 C 24.439 2.000,24.000 2.180,24.000 2.400 C 24.000 2.620,23.640 2.800,23.200 2.800 C 22.760 2.800,22.400 2.980,22.400 3.200 C 22.400 3.420,22.040 3.600,21.600 3.600 C 21.160 3.600,20.800 3.780,20.800 4.000 C 20.800 4.220,20.440 4.400,20.000 4.400 C 19.560 4.400,19.200 4.580,19.200 4.800 C 19.200 5.020,18.912 5.200,18.560 5.200 C 18.209 5.200,17.417 5.740,16.800 6.400 C 16.183 7.060,15.476 7.600,15.229 7.600 C 14.244 7.600,7.600 14.244,7.600 15.229 C 7.600 15.476,7.060 16.183,6.400 16.800 C 5.740 17.417,5.200 18.209,5.200 18.560 C 5.200 18.912,5.020 19.200,4.800 19.200 C 4.580 19.200,4.400 19.560,4.400 20.000 C 4.400 20.440,4.220 20.800,4.000 20.800 C 3.780 20.800,3.600 21.160,3.600 21.600 C 3.600 22.040,3.420 22.400,3.200 22.400 C 2.980 22.400,2.800 22.760,2.800 23.200 C 2.800 23.640,2.620 24.000,2.400 24.000 C 2.180 24.000,2.000 24.439,2.000 24.976 C 2.000 25.513,1.820 26.064,1.600 26.200 C 1.380 26.336,1.200 26.851,1.200 27.344 C 1.200 27.837,0.975 28.465,0.700 28.740 C -0.036 29.476,-0.036 370.524,0.700 371.260 C 0.975 371.535,1.200 372.163,1.200 372.656 C 1.200 373.149,1.380 373.664,1.600 373.800 C 1.820 373.936,2.000 374.487,2.000 375.024 C 2.000 375.561,2.180 376.000,2.400 376.000 C 2.620 376.000,2.800 376.360,2.800 376.800 C 2.800 377.240,2.980 377.600,3.200 377.600 C 3.420 377.600,3.600 377.960,3.600 378.400 C 3.600 378.840,3.780 379.200,4.000 379.200 C 4.220 379.200,4.400 379.560,4.400 380.000 C 4.400 380.440,4.580 380.800,4.800 380.800 C 5.020 380.800,5.200 381.088,5.200 381.440 C 5.200 381.791,5.740 382.583,6.400 383.200 C 7.060 383.817,7.600 384.524,7.600 384.771 C 7.600 385.756,14.244 392.400,15.229 392.400 C 15.476 392.400,16.183 392.940,16.800 393.600 C 17.417 394.260,18.209 394.800,18.560 394.800 C 18.912 394.800,19.200 394.980,19.200 395.200 C 19.200 395.420,19.560 395.600,20.000 395.600 C 20.440 395.600,20.800 395.780,20.800 396.000 C 20.800 396.220,21.160 396.400,21.600 396.400 C 22.040 396.400,22.400 396.580,22.400 396.800 C 22.400 397.020,22.760 397.200,23.200 397.200 C 23.640 397.200,24.000 397.380,24.000 397.600 C 24.000 397.820,24.439 398.000,24.976 398.000 C 25.513 398.000,26.064 398.180,26.200 398.400 C 26.336 398.620,26.851 398.800,27.344 398.800 C 27.837 398.800,28.465 399.025,28.740 399.300 C 29.476 400.036,370.524 400.036,371.260 399.300 C 371.535 399.025,372.163 398.800,372.656 398.800 C 373.149 398.800,373.664 398.620,373.800 398.400 C 373.936 398.180,374.487 398.000,375.024 398.000 C 375.561 398.000,376.000 397.820,376.000 397.600 C 376.000 397.380,376.360 397.200,376.800 397.200 C 377.240 397.200,377.600 397.020,377.600 396.800 C 377.600 396.580,377.960 396.400,378.400 396.400 C 378.840 396.400,379.200 396.220,379.200 396.000 C 379.200 395.780,379.560 395.600,380.000 395.600 C 380.440 395.600,380.800 395.420,380.800 395.200 C 380.800 394.980,381.088 394.800,381.440 394.800 C 381.791 394.800,382.583 394.260,383.200 393.600 C 383.817 392.940,384.524 392.400,384.771 392.400 C 385.192 392.400,387.036 390.887,388.962 388.962 C 390.887 387.036,392.400 385.192,392.400 384.771 C 392.400 384.524,392.940 383.817,393.600 383.200 C 394.260 382.583,394.800 381.791,394.800 381.440 C 394.800 381.088,394.980 380.800,395.200 380.800 C 395.420 380.800,395.600 380.440,395.600 380.000 C 395.600 379.560,395.780 379.200,396.000 379.200 C 396.220 379.200,396.400 378.840,396.400 378.400 C 396.400 377.960,396.580 377.600,396.800 377.600 C 397.020 377.600,397.200 377.240,397.200 376.800 C 397.200 376.360,397.380 376.000,397.600 376.000 C 397.820 376.000,398.000 375.561,398.000 375.024 C 398.000 374.487,398.180 373.936,398.400 373.800 C 398.620 373.664,398.800 373.149,398.800 372.656 C 398.800 372.163,399.025 371.535,399.300 371.260 C 400.036 370.524,400.036 29.476,399.300 28.740 C 399.025 28.465,398.800 27.837,398.800 27.344 C 398.800 26.851,398.620 26.336,398.400 26.200 C 398.180 26.064,398.000 25.513,398.000 24.976 C 398.000 24.439,397.820 24.000,397.600 24.000 C 397.380 24.000,397.200 23.640,397.200 23.200 C 397.200 22.760,397.020 22.400,396.800 22.400 C 396.580 22.400,396.400 22.040,396.400 21.600 C 396.400 21.160,396.220 20.800,396.000 20.800 C 395.780 20.800,395.600 20.440,395.600 20.000 C 395.600 19.560,395.420 19.200,395.200 19.200 C 394.980 19.200,394.800 18.912,394.800 18.560 C 394.800 18.209,394.260 17.417,393.600 16.800 C 392.940 16.183,392.400 15.476,392.400 15.229 C 392.400 14.244,385.756 7.600,384.771 7.600 C 384.524 7.600,383.817 7.060,383.200 6.400 C 382.583 5.740,381.791 5.200,381.440 5.200 C 381.088 5.200,380.800 5.020,380.800 4.800 C 380.800 4.580,380.440 4.400,380.000 4.400 C 379.560 4.400,379.200 4.220,379.200 4.000 C 379.200 3.780,378.840 3.600,378.400 3.600 C 377.960 3.600,377.600 3.420,377.600 3.200 C 377.600 2.980,377.240 2.800,376.800 2.800 C 376.360 2.800,376.000 2.620,376.000 2.400 C 376.000 2.180,375.561 2.000,375.024 2.000 C 374.487 2.000,373.936 1.820,373.800 1.600 C 373.664 1.380,373.149 1.200,372.656 1.200 C 372.163 1.200,371.535 0.975,371.260 0.700 C 370.782 0.222,34.383 -0.182,30.400 0.291 M170.423 97.300 C 170.673 98.235,171.650 101.340,172.595 104.200 C 173.540 107.060,174.946 111.380,175.719 113.800 C 181.628 132.287,183.061 136.751,184.386 140.800 C 185.854 145.289,188.867 154.649,193.654 169.600 C 196.868 179.638,198.016 183.515,199.575 189.600 C 200.809 194.413,201.306 195.325,201.702 193.500 C 201.921 192.492,204.391 183.094,205.409 179.400 C 205.772 178.080,206.240 176.304,206.447 175.454 C 207.241 172.204,211.548 157.532,213.216 152.400 C 213.609 151.190,214.328 148.850,214.814 147.200 C 215.300 145.550,216.011 143.210,216.393 142.000 C 216.776 140.790,217.499 138.450,218.000 136.800 C 218.501 135.150,219.224 132.810,219.607 131.600 C 219.989 130.390,220.697 128.050,221.178 126.400 C 221.660 124.750,222.211 122.950,222.401 122.400 C 222.592 121.850,223.313 119.510,224.003 117.200 C 224.693 114.890,225.682 111.650,226.200 110.000 C 226.718 108.350,227.687 105.200,228.352 103.000 C 229.017 100.800,229.794 98.235,230.078 97.300 L 230.595 95.600 247.455 95.600 C 262.460 95.600,264.341 95.670,264.557 96.233 C 264.875 97.060,264.875 303.740,264.557 304.567 C 264.343 305.126,262.839 305.200,251.757 305.200 L 239.200 305.200 239.202 265.300 C 239.203 227.053,239.522 208.708,240.394 196.600 C 240.616 193.520,241.071 187.040,241.406 182.200 C 242.307 169.165,243.739 152.408,244.807 142.400 C 245.006 140.530,245.364 137.020,245.601 134.600 C 245.838 132.180,246.199 128.580,246.403 126.600 C 246.606 124.620,246.967 120.930,247.205 118.400 C 247.442 115.870,247.712 113.312,247.805 112.716 C 247.898 112.119,247.821 111.537,247.634 111.421 C 247.315 111.224,246.244 114.393,238.316 139.000 C 236.544 144.500,234.239 151.610,233.194 154.800 C 230.969 161.590,225.007 180.042,223.178 185.800 C 222.479 188.000,221.051 192.410,220.004 195.600 C 218.958 198.790,217.249 204.055,216.207 207.300 L 214.312 213.200 200.656 213.193 L 187.000 213.186 184.040 204.093 C 182.413 199.092,180.226 192.390,179.180 189.200 C 178.135 186.010,175.352 177.460,172.997 170.200 C 170.642 162.940,167.493 153.310,165.998 148.800 C 164.504 144.290,161.717 135.740,159.804 129.800 C 154.250 112.558,153.868 111.422,153.475 111.000 C 153.244 110.751,153.198 111.357,153.355 112.600 C 153.494 113.700,153.776 116.220,153.981 118.200 C 154.186 120.180,154.554 123.690,154.797 126.000 C 155.041 128.310,155.410 131.820,155.618 133.800 C 155.825 135.780,156.170 139.560,156.384 142.200 C 156.598 144.840,156.959 149.070,157.186 151.600 C 157.599 156.187,159.578 186.441,160.484 202.000 C 160.802 207.473,160.968 225.965,160.981 257.600 L 161.000 305.000 148.500 305.106 L 136.000 305.211 136.000 200.406 L 136.000 95.600 152.985 95.600 L 169.969 95.600 170.423 97.300 " stroke="none" fill="#040404" fill-rule="evenodd"></path></g></svg>
